<svg width="100" height="100" viewBox="0 0 100 100" fill="none" xmlns="http://www.w3.org/2000/svg">
<path d="M25.2756 54V27.8182H30.8111V38.6207H42.0483V27.8182H47.571V54H42.0483V43.1847H30.8111V54H25.2756Z" fill="white"/>
<path d="M74.1747 49.8182V76H69.3935L58.0028 59.5213H57.8111V76H52.2756V49.8182H57.1335L68.4347 66.2841H68.6648V49.8182H74.1747Z" fill="white"/>
<path fill-rule="evenodd" clip-rule="evenodd" d="M50 100C77.6142 100 100 77.6142 100 50C100 22.3858 77.6142 0 50 0C22.3858 0 0 22.3858 0 50C0 77.6142 22.3858 100 50 100ZM50.5 95.5C75.3528 95.5 95.5 75.3528 95.5 50.5C95.5 25.6472 75.3528 5.5 50.5 5.5C25.6472 5.5 5.5 25.6472 5.5 50.5C5.5 75.3528 25.6472 95.5 50.5 95.5Z" fill="white"/>
</svg>
